<mxfile host="Electron" modified="2023-10-02T19:48:19.032Z" agent="Mozilla/5.0 (Windows NT 10.0; Win64; x64) AppleWebKit/537.36 (KHTML, like Gecko) draw.io/21.7.5 Chrome/114.0.5735.289 Electron/25.8.1 Safari/537.36" etag="RQtjAY18BWWyeDZtT4HV" version="21.7.5" type="device">
  <diagram name="Page-1" id="v2t2k_zoVyQWNI2M8nKw">
    <mxGraphModel dx="1708" dy="1980" grid="1" gridSize="10" guides="1" tooltips="1" connect="1" arrows="1" fold="1" page="1" pageScale="1" pageWidth="850" pageHeight="1100" math="0" shadow="0">
      <root>
        <mxCell id="0" />
        <mxCell id="1" parent="0" />
        <mxCell id="fk_LuQuYTseOI_a_7tkG-5" value="" style="edgeStyle=orthogonalEdgeStyle;rounded=0;orthogonalLoop=1;jettySize=auto;html=1;" edge="1" parent="1" source="fk_LuQuYTseOI_a_7tkG-1" target="fk_LuQuYTseOI_a_7tkG-4">
          <mxGeometry relative="1" as="geometry" />
        </mxCell>
        <mxCell id="fk_LuQuYTseOI_a_7tkG-1" value="Inicio" style="ellipse;whiteSpace=wrap;html=1;fillColor=#7EA6E0;" vertex="1" parent="1">
          <mxGeometry x="295" y="-100" width="120" height="80" as="geometry" />
        </mxCell>
        <mxCell id="fk_LuQuYTseOI_a_7tkG-22" value="" style="edgeStyle=orthogonalEdgeStyle;rounded=0;orthogonalLoop=1;jettySize=auto;html=1;" edge="1" parent="1" source="fk_LuQuYTseOI_a_7tkG-3" target="fk_LuQuYTseOI_a_7tkG-21">
          <mxGeometry relative="1" as="geometry" />
        </mxCell>
        <mxCell id="fk_LuQuYTseOI_a_7tkG-3" value="Loop Principal&lt;br&gt;i==0;" style="rounded=1;whiteSpace=wrap;html=1;fillColor=#006600;" vertex="1" parent="1">
          <mxGeometry x="295" y="660" width="120" height="60" as="geometry" />
        </mxCell>
        <mxCell id="fk_LuQuYTseOI_a_7tkG-102" value="" style="edgeStyle=orthogonalEdgeStyle;rounded=0;orthogonalLoop=1;jettySize=auto;html=1;" edge="1" parent="1" source="fk_LuQuYTseOI_a_7tkG-4" target="fk_LuQuYTseOI_a_7tkG-101">
          <mxGeometry relative="1" as="geometry" />
        </mxCell>
        <mxCell id="fk_LuQuYTseOI_a_7tkG-4" value="Se incluyen librerías:&lt;br&gt;&lt;div style=&quot;color: rgb(204, 204, 204); background-color: rgb(31, 31, 31); font-family: Consolas, &amp;quot;Courier New&amp;quot;, monospace; font-size: 14px; line-height: 19px;&quot;&gt;Adafruit_PCD8544&lt;/div&gt;&lt;div style=&quot;color: rgb(204, 204, 204); background-color: rgb(31, 31, 31); font-family: Consolas, &amp;quot;Courier New&amp;quot;, monospace; font-size: 14px; line-height: 19px;&quot;&gt;&lt;div style=&quot;line-height: 19px;&quot;&gt;SoftwareSerial&lt;/div&gt;&lt;/div&gt;" style="rounded=1;whiteSpace=wrap;html=1;fillColor=#0000FF;" vertex="1" parent="1">
          <mxGeometry x="277.25" y="10" width="155.5" height="70" as="geometry" />
        </mxCell>
        <mxCell id="fk_LuQuYTseOI_a_7tkG-20" value="" style="edgeStyle=orthogonalEdgeStyle;rounded=0;orthogonalLoop=1;jettySize=auto;html=1;" edge="1" parent="1" source="fk_LuQuYTseOI_a_7tkG-10" target="fk_LuQuYTseOI_a_7tkG-3">
          <mxGeometry relative="1" as="geometry" />
        </mxCell>
        <mxCell id="fk_LuQuYTseOI_a_7tkG-10" value="Set Up" style="swimlane;whiteSpace=wrap;html=1;fillColor=#A9C4EB;" vertex="1" parent="1">
          <mxGeometry x="250" y="220" width="210" height="410" as="geometry" />
        </mxCell>
        <mxCell id="fk_LuQuYTseOI_a_7tkG-17" value="" style="edgeStyle=orthogonalEdgeStyle;rounded=0;orthogonalLoop=1;jettySize=auto;html=1;" edge="1" parent="fk_LuQuYTseOI_a_7tkG-10" source="fk_LuQuYTseOI_a_7tkG-13" target="fk_LuQuYTseOI_a_7tkG-14">
          <mxGeometry relative="1" as="geometry" />
        </mxCell>
        <mxCell id="fk_LuQuYTseOI_a_7tkG-13" value="Inicializar Comunicación Serial" style="rounded=1;whiteSpace=wrap;html=1;fillColor=#FF8000;" vertex="1" parent="fk_LuQuYTseOI_a_7tkG-10">
          <mxGeometry x="45" y="50" width="120" height="60" as="geometry" />
        </mxCell>
        <mxCell id="fk_LuQuYTseOI_a_7tkG-18" value="" style="edgeStyle=orthogonalEdgeStyle;rounded=0;orthogonalLoop=1;jettySize=auto;html=1;" edge="1" parent="fk_LuQuYTseOI_a_7tkG-10" source="fk_LuQuYTseOI_a_7tkG-14" target="fk_LuQuYTseOI_a_7tkG-15">
          <mxGeometry relative="1" as="geometry" />
        </mxCell>
        <mxCell id="fk_LuQuYTseOI_a_7tkG-14" value="Configuración de pines analógicos y digitales." style="rounded=1;whiteSpace=wrap;html=1;fillColor=#FF8000;" vertex="1" parent="fk_LuQuYTseOI_a_7tkG-10">
          <mxGeometry x="45" y="150" width="120" height="60" as="geometry" />
        </mxCell>
        <mxCell id="fk_LuQuYTseOI_a_7tkG-19" value="" style="edgeStyle=orthogonalEdgeStyle;rounded=0;orthogonalLoop=1;jettySize=auto;html=1;" edge="1" parent="fk_LuQuYTseOI_a_7tkG-10" source="fk_LuQuYTseOI_a_7tkG-15" target="fk_LuQuYTseOI_a_7tkG-16">
          <mxGeometry relative="1" as="geometry" />
        </mxCell>
        <mxCell id="fk_LuQuYTseOI_a_7tkG-15" value="Inicializa la pantalla LCD" style="rounded=1;whiteSpace=wrap;html=1;fillColor=#FF8000;" vertex="1" parent="fk_LuQuYTseOI_a_7tkG-10">
          <mxGeometry x="45" y="240" width="120" height="60" as="geometry" />
        </mxCell>
        <mxCell id="fk_LuQuYTseOI_a_7tkG-16" value="Limpia la pantalla LCD" style="rounded=1;whiteSpace=wrap;html=1;fillColor=#FF8000;" vertex="1" parent="fk_LuQuYTseOI_a_7tkG-10">
          <mxGeometry x="45" y="330" width="120" height="60" as="geometry" />
        </mxCell>
        <mxCell id="fk_LuQuYTseOI_a_7tkG-27" value="" style="edgeStyle=orthogonalEdgeStyle;rounded=0;orthogonalLoop=1;jettySize=auto;html=1;" edge="1" parent="1" source="fk_LuQuYTseOI_a_7tkG-21" target="fk_LuQuYTseOI_a_7tkG-26">
          <mxGeometry relative="1" as="geometry" />
        </mxCell>
        <mxCell id="fk_LuQuYTseOI_a_7tkG-42" value="" style="edgeStyle=orthogonalEdgeStyle;rounded=0;orthogonalLoop=1;jettySize=auto;html=1;" edge="1" parent="1" source="fk_LuQuYTseOI_a_7tkG-21" target="fk_LuQuYTseOI_a_7tkG-41">
          <mxGeometry relative="1" as="geometry" />
        </mxCell>
        <mxCell id="fk_LuQuYTseOI_a_7tkG-21" value="Lee el estado de switchDC_AC y switchCOM" style="rounded=1;whiteSpace=wrap;html=1;fillColor=#006600;" vertex="1" parent="1">
          <mxGeometry x="295" y="750" width="120" height="60" as="geometry" />
        </mxCell>
        <mxCell id="fk_LuQuYTseOI_a_7tkG-37" style="edgeStyle=orthogonalEdgeStyle;rounded=0;orthogonalLoop=1;jettySize=auto;html=1;entryX=0.417;entryY=0;entryDx=0;entryDy=0;entryPerimeter=0;" edge="1" parent="1" source="fk_LuQuYTseOI_a_7tkG-26" target="fk_LuQuYTseOI_a_7tkG-36">
          <mxGeometry relative="1" as="geometry" />
        </mxCell>
        <mxCell id="fk_LuQuYTseOI_a_7tkG-40" style="edgeStyle=orthogonalEdgeStyle;rounded=0;orthogonalLoop=1;jettySize=auto;html=1;entryX=0.5;entryY=0;entryDx=0;entryDy=0;" edge="1" parent="1" source="fk_LuQuYTseOI_a_7tkG-26" target="fk_LuQuYTseOI_a_7tkG-39">
          <mxGeometry relative="1" as="geometry" />
        </mxCell>
        <mxCell id="fk_LuQuYTseOI_a_7tkG-26" value="valSwitchDC_AC" style="rhombus;whiteSpace=wrap;html=1;fillColor=#FF0000;" vertex="1" parent="1">
          <mxGeometry x="300" y="830" width="110" height="90" as="geometry" />
        </mxCell>
        <mxCell id="fk_LuQuYTseOI_a_7tkG-35" value="valSwitchDC_AC == 1;" style="text;html=1;strokeColor=none;fillColor=none;align=center;verticalAlign=middle;whiteSpace=wrap;rounded=0;" vertex="1" parent="1">
          <mxGeometry x="145" y="840" width="150" height="30" as="geometry" />
        </mxCell>
        <mxCell id="fk_LuQuYTseOI_a_7tkG-50" style="edgeStyle=orthogonalEdgeStyle;rounded=0;orthogonalLoop=1;jettySize=auto;html=1;entryX=0.5;entryY=0;entryDx=0;entryDy=0;" edge="1" parent="1" source="fk_LuQuYTseOI_a_7tkG-36" target="fk_LuQuYTseOI_a_7tkG-47">
          <mxGeometry relative="1" as="geometry" />
        </mxCell>
        <mxCell id="fk_LuQuYTseOI_a_7tkG-36" value="Se activa el modo DC y la comunicación serial desactivada." style="rounded=1;whiteSpace=wrap;html=1;fillColor=#006600;" vertex="1" parent="1">
          <mxGeometry x="70" y="900" width="120" height="60" as="geometry" />
        </mxCell>
        <mxCell id="fk_LuQuYTseOI_a_7tkG-38" value="valSwitchDC_AC == 0;" style="text;html=1;strokeColor=none;fillColor=none;align=center;verticalAlign=middle;whiteSpace=wrap;rounded=0;" vertex="1" parent="1">
          <mxGeometry x="415" y="840" width="150" height="30" as="geometry" />
        </mxCell>
        <mxCell id="fk_LuQuYTseOI_a_7tkG-49" style="edgeStyle=orthogonalEdgeStyle;rounded=0;orthogonalLoop=1;jettySize=auto;html=1;entryX=0.5;entryY=0;entryDx=0;entryDy=0;" edge="1" parent="1" source="fk_LuQuYTseOI_a_7tkG-39">
          <mxGeometry relative="1" as="geometry">
            <mxPoint x="570" y="1030" as="targetPoint" />
          </mxGeometry>
        </mxCell>
        <mxCell id="fk_LuQuYTseOI_a_7tkG-39" value="Se activa el modo AC y la comunicación serial desactivada." style="rounded=1;whiteSpace=wrap;html=1;fillColor=#006600;" vertex="1" parent="1">
          <mxGeometry x="510" y="900" width="120" height="60" as="geometry" />
        </mxCell>
        <mxCell id="fk_LuQuYTseOI_a_7tkG-44" value="" style="edgeStyle=orthogonalEdgeStyle;rounded=0;orthogonalLoop=1;jettySize=auto;html=1;" edge="1" parent="1" source="fk_LuQuYTseOI_a_7tkG-41" target="fk_LuQuYTseOI_a_7tkG-43">
          <mxGeometry relative="1" as="geometry" />
        </mxCell>
        <mxCell id="fk_LuQuYTseOI_a_7tkG-41" value="switchCOM&amp;nbsp;" style="rhombus;whiteSpace=wrap;html=1;fillColor=#FF0000;" vertex="1" parent="1">
          <mxGeometry x="520" y="740" width="100" height="80" as="geometry" />
        </mxCell>
        <mxCell id="fk_LuQuYTseOI_a_7tkG-100" style="edgeStyle=orthogonalEdgeStyle;rounded=0;orthogonalLoop=1;jettySize=auto;html=1;entryX=0.5;entryY=0;entryDx=0;entryDy=0;" edge="1" parent="1" source="fk_LuQuYTseOI_a_7tkG-43" target="fk_LuQuYTseOI_a_7tkG-74">
          <mxGeometry relative="1" as="geometry" />
        </mxCell>
        <mxCell id="fk_LuQuYTseOI_a_7tkG-43" value="Comunicación Habilitada" style="rounded=1;whiteSpace=wrap;html=1;fillColor=#006600;" vertex="1" parent="1">
          <mxGeometry x="790" y="900" width="120" height="60" as="geometry" />
        </mxCell>
        <mxCell id="fk_LuQuYTseOI_a_7tkG-45" value="switchCOM == 1" style="text;html=1;strokeColor=none;fillColor=none;align=center;verticalAlign=middle;whiteSpace=wrap;rounded=0;" vertex="1" parent="1">
          <mxGeometry x="630" y="740" width="100" height="30" as="geometry" />
        </mxCell>
        <mxCell id="fk_LuQuYTseOI_a_7tkG-94" style="edgeStyle=orthogonalEdgeStyle;rounded=0;orthogonalLoop=1;jettySize=auto;html=1;" edge="1" parent="1" source="fk_LuQuYTseOI_a_7tkG-47">
          <mxGeometry relative="1" as="geometry">
            <mxPoint x="130" y="1610" as="targetPoint" />
          </mxGeometry>
        </mxCell>
        <mxCell id="fk_LuQuYTseOI_a_7tkG-47" value="DC" style="swimlane;whiteSpace=wrap;html=1;fillColor=#FF99CC;" vertex="1" parent="1">
          <mxGeometry x="30" y="1030" width="200" height="430" as="geometry" />
        </mxCell>
        <mxCell id="fk_LuQuYTseOI_a_7tkG-56" value="" style="edgeStyle=orthogonalEdgeStyle;rounded=0;orthogonalLoop=1;jettySize=auto;html=1;" edge="1" parent="fk_LuQuYTseOI_a_7tkG-47" source="fk_LuQuYTseOI_a_7tkG-51" target="fk_LuQuYTseOI_a_7tkG-52">
          <mxGeometry relative="1" as="geometry" />
        </mxCell>
        <mxCell id="fk_LuQuYTseOI_a_7tkG-51" value="Hace múltiples lecturas analógicas de votl1,..., volt4." style="rounded=1;whiteSpace=wrap;html=1;fillColor=#660033;" vertex="1" parent="fk_LuQuYTseOI_a_7tkG-47">
          <mxGeometry x="40" y="50" width="120" height="50" as="geometry" />
        </mxCell>
        <mxCell id="fk_LuQuYTseOI_a_7tkG-57" value="" style="edgeStyle=orthogonalEdgeStyle;rounded=0;orthogonalLoop=1;jettySize=auto;html=1;" edge="1" parent="fk_LuQuYTseOI_a_7tkG-47" source="fk_LuQuYTseOI_a_7tkG-52" target="fk_LuQuYTseOI_a_7tkG-53">
          <mxGeometry relative="1" as="geometry" />
        </mxCell>
        <mxCell id="fk_LuQuYTseOI_a_7tkG-52" value="Convierte valores analógicos a tensiones reales." style="rounded=1;whiteSpace=wrap;html=1;fillColor=#660033;" vertex="1" parent="fk_LuQuYTseOI_a_7tkG-47">
          <mxGeometry x="40" y="130" width="120" height="50" as="geometry" />
        </mxCell>
        <mxCell id="fk_LuQuYTseOI_a_7tkG-61" value="" style="edgeStyle=orthogonalEdgeStyle;rounded=0;orthogonalLoop=1;jettySize=auto;html=1;" edge="1" parent="fk_LuQuYTseOI_a_7tkG-47" source="fk_LuQuYTseOI_a_7tkG-53" target="fk_LuQuYTseOI_a_7tkG-54">
          <mxGeometry relative="1" as="geometry" />
        </mxCell>
        <mxCell id="fk_LuQuYTseOI_a_7tkG-53" value="Determina el signo de laas tensiones sign1,...sign4." style="rounded=1;whiteSpace=wrap;html=1;fillColor=#660033;" vertex="1" parent="fk_LuQuYTseOI_a_7tkG-47">
          <mxGeometry x="40" y="210" width="120" height="50" as="geometry" />
        </mxCell>
        <mxCell id="fk_LuQuYTseOI_a_7tkG-63" value="" style="edgeStyle=orthogonalEdgeStyle;rounded=0;orthogonalLoop=1;jettySize=auto;html=1;" edge="1" parent="fk_LuQuYTseOI_a_7tkG-47" source="fk_LuQuYTseOI_a_7tkG-54" target="fk_LuQuYTseOI_a_7tkG-55">
          <mxGeometry relative="1" as="geometry" />
        </mxCell>
        <mxCell id="fk_LuQuYTseOI_a_7tkG-54" value="Ajusta las tensiones en función del signo y la ganancia." style="rounded=1;whiteSpace=wrap;html=1;fillColor=#660033;" vertex="1" parent="fk_LuQuYTseOI_a_7tkG-47">
          <mxGeometry x="40" y="290" width="120" height="50" as="geometry" />
        </mxCell>
        <mxCell id="fk_LuQuYTseOI_a_7tkG-55" value="Comprueba tensiones para activar o desactivar los LEDS." style="rounded=1;whiteSpace=wrap;html=1;fillColor=#660033;" vertex="1" parent="fk_LuQuYTseOI_a_7tkG-47">
          <mxGeometry x="40" y="370" width="120" height="50" as="geometry" />
        </mxCell>
        <mxCell id="fk_LuQuYTseOI_a_7tkG-96" style="edgeStyle=orthogonalEdgeStyle;rounded=0;orthogonalLoop=1;jettySize=auto;html=1;entryX=0.5;entryY=0;entryDx=0;entryDy=0;" edge="1" parent="1" source="fk_LuQuYTseOI_a_7tkG-64" target="fk_LuQuYTseOI_a_7tkG-92">
          <mxGeometry relative="1" as="geometry" />
        </mxCell>
        <mxCell id="fk_LuQuYTseOI_a_7tkG-64" value="AC" style="swimlane;whiteSpace=wrap;html=1;fillColor=#FF99CC;" vertex="1" parent="1">
          <mxGeometry x="470" y="1030" width="200" height="430" as="geometry" />
        </mxCell>
        <mxCell id="fk_LuQuYTseOI_a_7tkG-65" value="" style="edgeStyle=orthogonalEdgeStyle;rounded=0;orthogonalLoop=1;jettySize=auto;html=1;" edge="1" parent="fk_LuQuYTseOI_a_7tkG-64" source="fk_LuQuYTseOI_a_7tkG-66" target="fk_LuQuYTseOI_a_7tkG-68">
          <mxGeometry relative="1" as="geometry" />
        </mxCell>
        <mxCell id="fk_LuQuYTseOI_a_7tkG-66" value="Hace múltiples lecturas analógicas de votl1,..., volt4." style="rounded=1;whiteSpace=wrap;html=1;fillColor=#660033;" vertex="1" parent="fk_LuQuYTseOI_a_7tkG-64">
          <mxGeometry x="40" y="50" width="120" height="50" as="geometry" />
        </mxCell>
        <mxCell id="fk_LuQuYTseOI_a_7tkG-67" value="" style="edgeStyle=orthogonalEdgeStyle;rounded=0;orthogonalLoop=1;jettySize=auto;html=1;" edge="1" parent="fk_LuQuYTseOI_a_7tkG-64" source="fk_LuQuYTseOI_a_7tkG-68" target="fk_LuQuYTseOI_a_7tkG-70">
          <mxGeometry relative="1" as="geometry" />
        </mxCell>
        <mxCell id="fk_LuQuYTseOI_a_7tkG-68" value="Encuentra el valor máximo de cada tensión." style="rounded=1;whiteSpace=wrap;html=1;fillColor=#660033;" vertex="1" parent="fk_LuQuYTseOI_a_7tkG-64">
          <mxGeometry x="40" y="130" width="120" height="50" as="geometry" />
        </mxCell>
        <mxCell id="fk_LuQuYTseOI_a_7tkG-69" value="" style="edgeStyle=orthogonalEdgeStyle;rounded=0;orthogonalLoop=1;jettySize=auto;html=1;" edge="1" parent="fk_LuQuYTseOI_a_7tkG-64" source="fk_LuQuYTseOI_a_7tkG-70" target="fk_LuQuYTseOI_a_7tkG-72">
          <mxGeometry relative="1" as="geometry" />
        </mxCell>
        <mxCell id="fk_LuQuYTseOI_a_7tkG-70" value="Convierte valores máximos a tensiones RMS." style="rounded=1;whiteSpace=wrap;html=1;fillColor=#660033;" vertex="1" parent="fk_LuQuYTseOI_a_7tkG-64">
          <mxGeometry x="40" y="210" width="120" height="50" as="geometry" />
        </mxCell>
        <mxCell id="fk_LuQuYTseOI_a_7tkG-72" value="Comprueba tensiones RMS para activar o desactivar los LEDS." style="rounded=1;whiteSpace=wrap;html=1;fillColor=#660033;" vertex="1" parent="fk_LuQuYTseOI_a_7tkG-64">
          <mxGeometry x="40" y="290" width="120" height="50" as="geometry" />
        </mxCell>
        <mxCell id="fk_LuQuYTseOI_a_7tkG-93" style="edgeStyle=orthogonalEdgeStyle;rounded=0;orthogonalLoop=1;jettySize=auto;html=1;" edge="1" parent="1" source="fk_LuQuYTseOI_a_7tkG-74">
          <mxGeometry relative="1" as="geometry">
            <mxPoint x="850" y="1610" as="targetPoint" />
          </mxGeometry>
        </mxCell>
        <mxCell id="fk_LuQuYTseOI_a_7tkG-74" value="Comunicación Serial" style="swimlane;whiteSpace=wrap;html=1;fillColor=#FF99CC;" vertex="1" parent="1">
          <mxGeometry x="750" y="1030" width="200" height="430" as="geometry" />
        </mxCell>
        <mxCell id="fk_LuQuYTseOI_a_7tkG-75" value="" style="edgeStyle=orthogonalEdgeStyle;rounded=0;orthogonalLoop=1;jettySize=auto;html=1;" edge="1" parent="fk_LuQuYTseOI_a_7tkG-74" source="fk_LuQuYTseOI_a_7tkG-76" target="fk_LuQuYTseOI_a_7tkG-78">
          <mxGeometry relative="1" as="geometry" />
        </mxCell>
        <mxCell id="fk_LuQuYTseOI_a_7tkG-76" value="Habilita Comunicación Serial." style="rounded=1;whiteSpace=wrap;html=1;fillColor=#660033;" vertex="1" parent="fk_LuQuYTseOI_a_7tkG-74">
          <mxGeometry x="40" y="50" width="120" height="50" as="geometry" />
        </mxCell>
        <mxCell id="fk_LuQuYTseOI_a_7tkG-77" value="" style="edgeStyle=orthogonalEdgeStyle;rounded=0;orthogonalLoop=1;jettySize=auto;html=1;" edge="1" parent="fk_LuQuYTseOI_a_7tkG-74" source="fk_LuQuYTseOI_a_7tkG-78" target="fk_LuQuYTseOI_a_7tkG-80">
          <mxGeometry relative="1" as="geometry" />
        </mxCell>
        <mxCell id="fk_LuQuYTseOI_a_7tkG-78" value="Envia las tensiones medidas a tráves de la comunicación serial." style="rounded=1;whiteSpace=wrap;html=1;fillColor=#660033;" vertex="1" parent="fk_LuQuYTseOI_a_7tkG-74">
          <mxGeometry x="40" y="130" width="120" height="60" as="geometry" />
        </mxCell>
        <mxCell id="fk_LuQuYTseOI_a_7tkG-79" value="" style="edgeStyle=orthogonalEdgeStyle;rounded=0;orthogonalLoop=1;jettySize=auto;html=1;" edge="1" parent="fk_LuQuYTseOI_a_7tkG-74" source="fk_LuQuYTseOI_a_7tkG-80" target="fk_LuQuYTseOI_a_7tkG-81">
          <mxGeometry relative="1" as="geometry" />
        </mxCell>
        <mxCell id="fk_LuQuYTseOI_a_7tkG-80" value="Deshabilita la comunicación serial." style="rounded=1;whiteSpace=wrap;html=1;fillColor=#660033;" vertex="1" parent="fk_LuQuYTseOI_a_7tkG-74">
          <mxGeometry x="40" y="210" width="120" height="50" as="geometry" />
        </mxCell>
        <mxCell id="fk_LuQuYTseOI_a_7tkG-81" value="Comprueba tensiones RMS para activar o desactivar los LEDS." style="rounded=1;whiteSpace=wrap;html=1;fillColor=#660033;" vertex="1" parent="fk_LuQuYTseOI_a_7tkG-74">
          <mxGeometry x="40" y="290" width="120" height="50" as="geometry" />
        </mxCell>
        <mxCell id="fk_LuQuYTseOI_a_7tkG-85" value="" style="edgeStyle=orthogonalEdgeStyle;rounded=0;orthogonalLoop=1;jettySize=auto;html=1;" edge="1" parent="1" source="fk_LuQuYTseOI_a_7tkG-82" target="fk_LuQuYTseOI_a_7tkG-83">
          <mxGeometry relative="1" as="geometry" />
        </mxCell>
        <mxCell id="fk_LuQuYTseOI_a_7tkG-82" value="Mostrar tensiones en la pantalla LCD" style="rounded=1;whiteSpace=wrap;html=1;fillColor=#006600;" vertex="1" parent="1">
          <mxGeometry x="465" y="1710" width="120" height="60" as="geometry" />
        </mxCell>
        <mxCell id="fk_LuQuYTseOI_a_7tkG-86" value="" style="edgeStyle=orthogonalEdgeStyle;rounded=0;orthogonalLoop=1;jettySize=auto;html=1;" edge="1" parent="1" source="fk_LuQuYTseOI_a_7tkG-83" target="fk_LuQuYTseOI_a_7tkG-84">
          <mxGeometry relative="1" as="geometry" />
        </mxCell>
        <mxCell id="fk_LuQuYTseOI_a_7tkG-83" value="Actualizar pantalla&amp;nbsp;" style="rounded=1;whiteSpace=wrap;html=1;fillColor=#006600;" vertex="1" parent="1">
          <mxGeometry x="465" y="1790" width="120" height="60" as="geometry" />
        </mxCell>
        <mxCell id="fk_LuQuYTseOI_a_7tkG-88" value="" style="edgeStyle=orthogonalEdgeStyle;rounded=0;orthogonalLoop=1;jettySize=auto;html=1;" edge="1" parent="1" source="fk_LuQuYTseOI_a_7tkG-84" target="fk_LuQuYTseOI_a_7tkG-87">
          <mxGeometry relative="1" as="geometry" />
        </mxCell>
        <mxCell id="fk_LuQuYTseOI_a_7tkG-84" value="Limpiar la pantalla" style="rounded=1;whiteSpace=wrap;html=1;fillColor=#006600;" vertex="1" parent="1">
          <mxGeometry x="465" y="1880" width="120" height="60" as="geometry" />
        </mxCell>
        <mxCell id="fk_LuQuYTseOI_a_7tkG-106" value="" style="edgeStyle=orthogonalEdgeStyle;rounded=0;orthogonalLoop=1;jettySize=auto;html=1;" edge="1" parent="1" source="fk_LuQuYTseOI_a_7tkG-87" target="fk_LuQuYTseOI_a_7tkG-105">
          <mxGeometry relative="1" as="geometry" />
        </mxCell>
        <mxCell id="fk_LuQuYTseOI_a_7tkG-87" value="Repetir Loop Principal" style="rounded=1;whiteSpace=wrap;html=1;fillColor=#006600;" vertex="1" parent="1">
          <mxGeometry x="465" y="1970" width="120" height="60" as="geometry" />
        </mxCell>
        <mxCell id="fk_LuQuYTseOI_a_7tkG-99" value="" style="edgeStyle=orthogonalEdgeStyle;rounded=0;orthogonalLoop=1;jettySize=auto;html=1;" edge="1" parent="1" source="fk_LuQuYTseOI_a_7tkG-92" target="fk_LuQuYTseOI_a_7tkG-82">
          <mxGeometry relative="1" as="geometry" />
        </mxCell>
        <mxCell id="fk_LuQuYTseOI_a_7tkG-92" value="" style="ellipse;whiteSpace=wrap;html=1;aspect=fixed;fillColor=#CC0000;" vertex="1" parent="1">
          <mxGeometry x="485" y="1570" width="80" height="80" as="geometry" />
        </mxCell>
        <mxCell id="fk_LuQuYTseOI_a_7tkG-97" value="" style="endArrow=classic;html=1;rounded=0;entryX=1;entryY=0.5;entryDx=0;entryDy=0;" edge="1" parent="1" target="fk_LuQuYTseOI_a_7tkG-92">
          <mxGeometry width="50" height="50" relative="1" as="geometry">
            <mxPoint x="850" y="1609.09" as="sourcePoint" />
            <mxPoint x="710" y="1609.09" as="targetPoint" />
          </mxGeometry>
        </mxCell>
        <mxCell id="fk_LuQuYTseOI_a_7tkG-98" value="" style="endArrow=classic;html=1;rounded=0;entryX=0;entryY=0.5;entryDx=0;entryDy=0;" edge="1" parent="1" target="fk_LuQuYTseOI_a_7tkG-92">
          <mxGeometry width="50" height="50" relative="1" as="geometry">
            <mxPoint x="130" y="1609.09" as="sourcePoint" />
            <mxPoint x="250" y="1609.09" as="targetPoint" />
          </mxGeometry>
        </mxCell>
        <mxCell id="fk_LuQuYTseOI_a_7tkG-104" style="edgeStyle=orthogonalEdgeStyle;rounded=0;orthogonalLoop=1;jettySize=auto;html=1;entryX=0.5;entryY=0;entryDx=0;entryDy=0;" edge="1" parent="1" source="fk_LuQuYTseOI_a_7tkG-101" target="fk_LuQuYTseOI_a_7tkG-10">
          <mxGeometry relative="1" as="geometry" />
        </mxCell>
        <mxCell id="fk_LuQuYTseOI_a_7tkG-101" value="Se declaran variables, pines.&lt;br&gt;Se declaran conexiones del PCD8544" style="rounded=1;whiteSpace=wrap;html=1;fillColor=#0000FF;" vertex="1" parent="1">
          <mxGeometry x="290" y="120" width="130" height="70" as="geometry" />
        </mxCell>
        <mxCell id="fk_LuQuYTseOI_a_7tkG-105" value="Fin" style="ellipse;whiteSpace=wrap;html=1;rounded=1;fillColor=#66B2FF;" vertex="1" parent="1">
          <mxGeometry x="485" y="2060" width="80" height="80" as="geometry" />
        </mxCell>
      </root>
    </mxGraphModel>
  </diagram>
</mxfile>
